<mxfile host="app.diagrams.net" modified="2022-07-19T06:19:18.948Z" agent="5.0 (Windows)" etag="8qN7cxP1-bFatjNnvWGy" version="17.4.6" type="github">
  <diagram id="FBH4GuDuEH2271p3MttK" name="第 1 页">
    <mxGraphModel dx="1422" dy="724" grid="1" gridSize="10" guides="1" tooltips="1" connect="1" arrows="1" fold="1" page="1" pageScale="1" pageWidth="827" pageHeight="1169" math="0" shadow="0">
      <root>
        <mxCell id="0" />
        <mxCell id="1" parent="0" />
        <mxCell id="Iby-sbyzFiXL1bkjBMej-1" value="" style="shape=parallelogram;perimeter=parallelogramPerimeter;whiteSpace=wrap;html=1;fixedSize=1;" parent="1" vertex="1">
          <mxGeometry x="350" y="460" width="120" height="60" as="geometry" />
        </mxCell>
      </root>
    </mxGraphModel>
  </diagram>
</mxfile>
